<svg xmlns="http://www.w3.org/2000/svg" viewBox="0 0 100 100" width="100" height="100">
  <!-- Céu/Fundo -->
  <rect width="100" height="100" fill="#87CEEB"/>
  
  <!-- Sol -->
  <circle cx="20" cy="20" r="8" fill="#FFD700"/>
  
  <!-- Mar -->
  <path d="M0,70 Q25,65 50,70 T100,70 L100,100 L0,100 Z" fill="#006994"/>
  <path d="M0,75 Q25,70 50,75 T100,75 L100,100 L0,100 Z" fill="#0080B3" opacity="0.7"/>
  
  <!-- Areia -->
  <path d="M0,75 Q25,70 50,75 T100,75 L100,85 Q75,80 50,85 T0,85 Z" fill="#F4A460"/>
  
  <!-- Tronco do coqueiro -->
  <path d="M65,85 Q67,70 70,50 Q72,40 75,25" stroke="#8B4513" stroke-width="3" fill="none"/>
  
  <!-- Folhas do coqueiro -->
  <path d="M75,25 Q85,15 95,20 Q90,25 75,25" fill="#228B22"/>
  <path d="M75,25 Q65,15 55,20 Q60,25 75,25" fill="#228B22"/>
  <path d="M75,25 Q75,10 85,5 Q80,20 75,25" fill="#32CD32"/>
  <path d="M75,25 Q75,10 65,5 Q70,20 75,25" fill="#32CD32"/>
  <path d="M75,25 Q85,30 90,40 Q80,35 75,25" fill="#228B22"/>
  <path d="M75,25 Q65,30 60,40 Q70,35 75,25" fill="#228B22"/>
  
  <!-- Cocos -->
  <circle cx="73" cy="28" r="2" fill="#8B4513"/>
  <circle cx="77" cy="30" r="2" fill="#8B4513"/>
</svg>
